<?xml version="1.0" standalone="no"?>
<!DOCTYPE svg PUBLIC "-//W3C//DTD SVG 20010904//EN"
 "http://www.w3.org/TR/2001/REC-SVG-20010904/DTD/svg10.dtd">
<svg version="1.0" xmlns="http://www.w3.org/2000/svg"
 width="100.000000pt" height="100.000000pt" viewBox="0 0 100.000000 100.000000"
 preserveAspectRatio="xMidYMid meet">

<g transform="translate(0.000000,100.000000) scale(0.100000,-0.100000)"
fill="#000000" stroke="none">
<path d="M1 948 c1 -52 1 -52 10 -18 5 19 14 43 19 53 8 14 6 17 -10 17 -18 0
-20 -6 -19 -52z"/>
<path d="M366 945 c-29 -30 -50 -62 -57 -89 -6 -22 -21 -75 -35 -117 -20 -64
-22 -81 -13 -109 13 -35 3 -47 -46 -60 -11 -3 -25 -16 -31 -28 -11 -22 -12
-22 -38 16 -14 21 -26 41 -26 44 0 4 -19 37 -42 74 -28 45 -48 92 -59 143 -17
76 -17 75 -18 -371 l-1 -448 500 0 500 0 0 110 c0 113 -6 128 -39 98 -11 -11
-12 -10 -6 2 8 13 7 13 -8 1 -9 -7 -17 -10 -18 -5 0 5 -5 0 -10 -11 -7 -15 -8
-11 -5 17 3 21 0 40 -5 43 -5 4 -9 15 -9 26 0 11 -14 63 -31 117 -17 53 -33
103 -35 110 -4 15 -48 33 -52 22 -2 -5 9 -32 23 -60 15 -29 25 -53 23 -55 -6
-6 -96 112 -103 135 -5 15 -4 20 4 16 7 -5 11 2 11 18 0 14 -4 26 -10 26 -5 0
-10 8 -10 18 0 11 -11 24 -25 30 -14 6 -25 17 -25 24 0 9 4 8 11 -2 8 -11 9
-8 4 15 -3 17 -10 53 -15 80 -11 71 -22 107 -28 101 -3 -3 -11 2 -18 12 -12
15 -12 14 -8 -8 l5 -25 -15 25 c-18 30 -20 44 -5 34 19 -11 -7 29 -33 52 -17
16 -39 21 -89 23 l-67 2 -46 -46z m161 -33 c17 -9 34 -26 37 -38 3 -12 8 -28
11 -36 4 -11 -2 -13 -28 -10 -27 3 -38 -1 -51 -19 -19 -28 -21 -55 -3 -63 8
-3 7 -8 -6 -16 -9 -6 -15 -15 -12 -21 4 -5 -8 -9 -24 -9 -33 0 -39 8 -19 28 8
8 8 12 1 12 -17 0 -34 -26 -28 -42 7 -19 73 -50 87 -42 6 4 8 -3 6 -17 -2 -19
-10 -25 -36 -27 -27 -3 -40 3 -64 29 -31 32 -31 32 -25 118 7 105 21 147 56
166 28 15 48 13 98 -13z m117 -128 c3 -8 2 -12 -4 -9 -6 3 -10 10 -10 16 0 14
7 11 14 -7z m-64 -33 c0 -27 -54 -22 -58 5 -3 18 1 20 28 16 20 -3 30 -10 30
-21z m-85 -71 c-3 -5 -15 -10 -25 -10 -10 0 -22 5 -25 10 -4 6 7 10 25 10 18
0 29 -4 25 -10z m52 -22 c-3 -8 -6 -5 -6 6 -1 11 2 17 5 13 3 -3 4 -12 1 -19z
m-78 -74 c20 -15 23 -22 17 -60 -5 -40 -4 -44 15 -44 11 0 29 5 40 10 18 10
19 7 18 -87 -1 -54 -4 -129 -8 -167 l-6 -69 -32 -2 c-18 -2 -47 0 -64 4 l-32
6 -3 115 c-2 89 -1 110 8 93 9 -19 18 -23 57 -21 l46 1 -42 4 c-47 5 -55 21
-28 57 20 27 19 53 -4 85 -16 23 -26 58 -22 84 2 11 15 8 40 -9z m-355 -120
c9 -3 16 -12 16 -20 0 -14 -6 -16 -35 -16 -30 0 -35 2 -35 22 0 20 22 26 54
14z m596 -9 c7 -8 18 -15 25 -15 6 0 20 -10 31 -22 l19 -22 -27 17 c-15 9 -29
17 -31 17 -1 0 -2 -17 0 -37 l2 -38 -10 39 c-5 22 -17 48 -26 58 -9 10 -11 18
-6 18 6 0 16 -7 23 -15z m-571 -63 c20 -38 -31 -71 -59 -37 -6 8 -9 23 -5 35
8 25 51 27 64 2z m177 -9 c-4 -24 -46 -111 -46 -97 0 24 31 114 40 114 6 0 8
-8 6 -17z m450 -28 c0 -18 -4 -31 -8 -29 -4 3 -8 0 -8 -5 0 -6 -7 -11 -15 -11
-8 0 -15 7 -15 15 0 8 6 12 15 9 11 -5 13 1 10 30 -4 26 -1 34 8 30 7 -2 13
-20 13 -39z m-549 -17 c-3 -8 -6 -5 -6 6 -1 11 2 17 5 13 3 -3 4 -12 1 -19z
m33 -8 c0 -16 -5 -30 -10 -30 -6 0 -9 12 -6 28 5 33 5 32 11 32 3 0 5 -13 5
-30z m441 -13 c-8 -8 -11 -5 -11 9 0 27 14 41 18 19 2 -9 -1 -22 -7 -28z
m-523 -1 c5 -26 -15 -35 -49 -23 -35 14 -36 20 -6 35 30 15 51 10 55 -12z
m542 -40 c0 -14 4 -28 10 -31 6 -4 7 1 3 12 -6 15 -4 16 9 6 8 -7 17 -10 20
-8 3 3 8 -3 11 -15 3 -13 1 -18 -6 -13 -6 4 -8 0 -4 -10 11 -28 -9 -19 -42 18
-33 38 -40 65 -16 65 9 0 15 -9 15 -24z m87 -23 c0 -19 -24 3 -30 28 -6 21 -5
21 12 3 10 -11 18 -25 18 -31z m-596 15 c10 -13 18 -33 19 -45 0 -16 4 -21 15
-17 20 8 19 -5 -2 -28 -21 -23 -33 -23 -33 1 0 15 -5 18 -22 14 -21 -5 -21 -4
6 26 17 17 27 31 24 31 -4 0 -14 3 -24 7 -13 5 -15 3 -9 -7 6 -10 4 -12 -9 -7
-14 5 -17 3 -12 -8 3 -8 1 -15 -5 -15 -22 0 -21 33 2 51 30 23 27 23 50 -3z
m649 -19 c0 -5 -4 -9 -10 -9 -5 0 -10 7 -10 16 0 8 5 12 10 9 6 -3 10 -10 10
-16z m-551 -79 c0 -3 -13 -15 -30 -28 -22 -18 -29 -20 -29 -8 0 8 5 18 11 21
6 4 8 13 5 20 -2 7 -2 15 1 18 6 6 43 -14 42 -23z m42 -20 c23 -13 25 -43 3
-61 -31 -26 -70 25 -44 56 15 18 16 18 41 5z m335 -37 c22 -8 17 -26 -6 -20
-13 3 -20 0 -20 -9 0 -20 -17 -17 -23 4 -2 9 -8 26 -13 36 -6 15 -4 18 8 13
10 -3 19 1 24 11 6 14 8 13 12 -6 2 -13 10 -26 18 -29z m-286 0 c1 -16 2 -16
16 2 14 19 15 19 21 -3 5 -21 6 -21 18 -5 21 29 28 8 9 -24 -10 -15 -20 -30
-22 -33 -2 -3 -8 4 -14 14 -8 14 -12 15 -18 6 -12 -20 -30 -2 -30 31 0 30 20
42 20 12z m210 -6 c0 -13 5 -28 12 -35 9 -9 8 -12 -4 -12 -9 0 -19 6 -21 13
-3 7 -6 5 -6 -5 -1 -29 -19 -21 -26 12 -8 36 0 50 26 50 13 0 19 -7 19 -23z
m-65 -22 c0 -27 -3 -30 -30 -30 -21 0 -31 5 -33 18 -5 25 17 49 42 45 16 -2
21 -10 21 -33z"/>
<path d="M408 821 c10 -6 8 -10 -10 -15 -19 -5 -20 -8 -8 -16 25 -16 57 -12
63 9 6 25 0 31 -32 31 -18 0 -22 -3 -13 -9z"/>
<path d="M456 332 c8 -7 11 -18 8 -23 -3 -6 0 -24 7 -41 l13 -32 8 29 c5 21 3
34 -9 47 -15 16 -15 18 0 18 9 0 18 4 21 8 2 4 -10 8 -28 8 -28 0 -31 -2 -20
-14z"/>
<path d="M90 375 c0 -10 7 -15 18 -13 21 4 19 22 -2 26 -10 2 -16 -3 -16 -13z"/>
<path d="M314 126 c-8 -22 3 -33 18 -18 9 9 9 15 0 24 -9 9 -13 7 -18 -6z"/>
<path d="M492 84 c4 -21 22 -23 26 -1 2 10 -3 17 -13 17 -10 0 -15 -6 -13 -16z"/>
</g>
</svg>
